<svg id="visual" viewBox="0 0 1200 200" width="1200" height="200" xmlns="http://www.w3.org/2000/svg" xmlns:xlink="http://www.w3.org/1999/xlink" version="1.1"><path d="M0 131L28.5 134.2C57 137.3 114 143.7 171.2 141.2C228.3 138.7 285.7 127.3 342.8 122C400 116.7 457 117.3 514.2 119.3C571.3 121.3 628.7 124.7 685.8 123.8C743 123 800 118 857.2 115.2C914.3 112.3 971.7 111.7 1028.8 115.8C1086 120 1143 129 1171.5 133.5L1200 138L1200 0L1171.5 0C1143 0 1086 0 1028.8 0C971.7 0 914.3 0 857.2 0C800 0 743 0 685.8 0C628.7 0 571.3 0 514.2 0C457 0 400 0 342.8 0C285.7 0 228.3 0 171.2 0C114 0 57 0 28.5 0L0 0Z" fill="#1b49a1"></path><path d="M0 133L28.5 130.7C57 128.3 114 123.7 171.2 122.2C228.3 120.7 285.7 122.3 342.8 124.8C400 127.3 457 130.7 514.2 123.7C571.3 116.7 628.7 99.3 685.8 95.7C743 92 800 102 857.2 107.3C914.3 112.7 971.7 113.3 1028.8 117.3C1086 121.3 1143 128.7 1171.5 132.3L1200 136L1200 0L1171.5 0C1143 0 1086 0 1028.8 0C971.7 0 914.3 0 857.2 0C800 0 743 0 685.8 0C628.7 0 571.3 0 514.2 0C457 0 400 0 342.8 0C285.7 0 228.3 0 171.2 0C114 0 57 0 28.5 0L0 0Z" fill="#0070ba"></path><path d="M0 62L28.5 63C57 64 114 66 171.2 71.3C228.3 76.7 285.7 85.3 342.8 88.7C400 92 457 90 514.2 85.2C571.3 80.3 628.7 72.7 685.8 74C743 75.3 800 85.7 857.2 89.8C914.3 94 971.7 92 1028.8 92C1086 92 1143 94 1171.5 95L1200 96L1200 0L1171.5 0C1143 0 1086 0 1028.8 0C971.7 0 914.3 0 857.2 0C800 0 743 0 685.8 0C628.7 0 571.3 0 514.2 0C457 0 400 0 342.8 0C285.7 0 228.3 0 171.2 0C114 0 57 0 28.5 0L0 0Z" fill="#0094c9"></path><path d="M0 71L28.5 71.7C57 72.3 114 73.7 171.2 70.2C228.3 66.7 285.7 58.3 342.8 52.5C400 46.7 457 43.3 514.2 43.8C571.3 44.3 628.7 48.7 685.8 50C743 51.3 800 49.7 857.2 50.5C914.3 51.3 971.7 54.7 1028.8 56.5C1086 58.3 1143 58.7 1171.5 58.8L1200 59L1200 0L1171.5 0C1143 0 1086 0 1028.8 0C971.7 0 914.3 0 857.2 0C800 0 743 0 685.8 0C628.7 0 571.3 0 514.2 0C457 0 400 0 342.8 0C285.7 0 228.3 0 171.2 0C114 0 57 0 28.5 0L0 0Z" fill="#00b6cb"></path><path d="M0 20L28.5 23.8C57 27.7 114 35.3 171.2 40C228.3 44.7 285.7 46.3 342.8 46.7C400 47 457 46 514.2 41.2C571.3 36.3 628.7 27.7 685.8 26.2C743 24.7 800 30.3 857.2 30.3C914.3 30.3 971.7 24.7 1028.8 24.8C1086 25 1143 31 1171.5 34L1200 37L1200 0L1171.5 0C1143 0 1086 0 1028.8 0C971.7 0 914.3 0 857.2 0C800 0 743 0 685.8 0C628.7 0 571.3 0 514.2 0C457 0 400 0 342.8 0C285.7 0 228.3 0 171.2 0C114 0 57 0 28.5 0L0 0Z" fill="#1dd2b1"></path></svg>